<svg width="85" height="40" viewBox="0 0 85 40" fill="none" xmlns="http://www.w3.org/2000/svg">
<g clip-path="url(#clip0_2_74)">
<path fill-rule="evenodd" clip-rule="evenodd" d="M13.726 24.3187C13.7006 24.4805 13.6385 24.6346 13.5444 24.7693C13.4504 24.904 13.3269 25.0159 13.183 25.0965C12.8934 25.282 12.64 25.3748 12.3836 25.4675C11.8376 25.6545 11.2629 25.8415 10.655 26.0584C10.014 26.2753 9.43929 26.4922 8.92645 26.6493C8.28691 26.8662 7.67904 27.0532 7.10134 27.2701C6.6667 27.4545 6.25845 27.6949 5.88711 27.9851C5.54175 28.2954 5.24036 28.6507 4.99114 29.0412C4.73472 29.475 4.57333 30.0345 4.57333 30.6867C4.57333 31.9926 4.8931 32.9859 5.53415 33.6067C6.1737 34.2604 7.35927 34.57 9.1165 34.57C10.9084 34.57 12.1242 34.229 12.7667 33.5453C13.4048 32.8617 13.7245 31.8998 13.7245 30.6583V24.3187H13.726ZM9.11801 10.5564C12.2554 10.5564 14.5587 11.1473 16.0293 12.359C17.5015 13.5408 18.2375 15.0606 18.2375 16.8616V32.2095C18.2375 32.8303 18.1108 33.5139 17.8876 34.2589C17.6614 35.0068 17.2149 35.6889 16.5105 36.3082C15.8393 36.932 14.9116 37.4601 13.7276 37.864C12.5435 38.2679 11.008 38.4848 9.11952 38.4848C7.23407 38.4848 5.69555 38.2679 4.51299 37.864C3.33044 37.4601 2.40129 36.932 1.73007 36.3082C1.10566 35.7502 0.632636 35.0455 0.354449 34.2589C0.128195 33.5154 -1.52588e-05 32.8318 -1.52588e-05 32.211V29.7577C-1.52588e-05 28.4518 0.351432 27.2401 1.05584 26.1825C1.76024 25.0965 2.75123 24.3516 4.03183 23.8849C4.67137 23.6679 5.40745 23.451 6.23856 23.1713C7.07117 22.8901 7.83742 22.6104 8.60668 22.3635C9.37594 22.1137 10.0472 21.8639 10.6218 21.6455C10.9687 21.5079 11.3209 21.3841 11.6777 21.2745L12.2539 20.9948C12.4801 20.8706 12.7019 20.6836 12.9266 20.4353C13.1499 20.1885 13.3414 19.9088 13.5028 19.5976C13.6733 19.2607 13.7612 18.8886 13.7592 18.5116V17.5168C13.7616 17.1522 13.6844 16.7915 13.533 16.4592C13.4063 16.0853 13.1499 15.7442 12.7984 15.4346C12.447 15.1234 11.9658 14.8751 11.3911 14.6866C10.8149 14.5026 10.0487 14.4084 9.18287 14.4084C7.39094 14.4084 6.20688 14.7524 5.56734 15.4645C5.02433 16.0868 4.70456 16.8631 4.6412 17.7322C4.6412 17.9192 4.48132 18.0434 4.28825 18.0434L0.386125 18.1062C0.293433 18.1066 0.204334 18.0707 0.138228 18.0063C0.0721214 17.9418 0.0343612 17.8541 0.0331686 17.7622V16.8646C0.0331686 15.9925 0.194563 15.1847 0.546011 14.4084C0.898966 13.6305 1.44348 12.9798 2.17805 12.4188C2.91413 11.8609 3.87496 11.3956 5.02584 11.0845C6.14655 10.7105 7.52217 10.5564 9.12103 10.5564H9.11801ZM79.86 24.3187C79.8346 24.4805 79.7725 24.6346 79.6784 24.7693C79.5844 24.904 79.4608 25.0159 79.317 25.0965C79.0304 25.282 78.774 25.3748 78.5176 25.4675C77.9746 25.6545 77.3969 25.8415 76.789 26.0584C76.148 26.2753 75.5718 26.4922 75.0604 26.6493C74.4194 26.8662 73.8115 27.0532 73.2353 27.2701C72.8002 27.4544 72.3914 27.6948 72.0196 27.9851C71.6748 28.2955 71.3739 28.6508 71.1251 29.0412C70.8687 29.475 70.7088 30.0345 70.7088 30.6867C70.7088 31.9926 71.0256 32.9859 71.6666 33.6067C72.3062 34.2604 73.4917 34.57 75.2505 34.57C77.0454 34.57 78.2597 34.229 78.9007 33.5453C79.5388 32.8617 79.8585 31.8998 79.8585 30.6583L79.86 24.3187ZM75.2535 10.5564C78.3909 10.5564 80.6942 11.1473 82.1663 12.359C83.637 13.5408 84.373 15.0606 84.373 16.8616V32.2095C84.373 32.8303 84.2463 33.5139 84.0216 34.2589C83.7984 35.0068 83.3504 35.6889 82.646 36.3082C81.9748 36.932 81.0471 37.4601 79.8631 37.864C78.6805 38.2679 77.1435 38.4848 75.2565 38.4848C73.3711 38.4848 71.8326 38.2679 70.65 37.864C69.4674 37.4601 68.5383 36.932 67.8671 36.3082C67.2437 35.7499 66.7717 35.0452 66.4945 34.2589C66.2682 33.5139 66.14 32.8303 66.14 32.2095V29.7562C66.14 28.4503 66.493 27.2386 67.1959 26.181C67.9003 25.095 68.8928 24.3501 70.1718 23.8834C70.8114 23.6665 71.5475 23.4495 72.3801 23.1698C73.2097 22.8886 73.9789 22.6089 74.7482 22.362C75.5175 22.1122 76.1872 21.8624 76.7634 21.644C77.1102 21.5064 77.4624 21.3826 77.8192 21.273L78.3954 20.9933C78.6187 20.8691 78.8434 20.6821 79.0666 20.4338C79.2956 20.1814 79.4894 19.8996 79.6428 19.5961C79.8134 19.2592 79.9012 18.8871 79.8993 18.5101V17.5153C79.9016 17.1508 79.8244 16.79 79.673 16.4577C79.5463 16.0838 79.2914 15.7427 78.9384 15.4331C78.587 15.1219 78.1088 14.8736 77.5311 14.6851C76.9549 14.5011 76.1887 14.4069 75.3229 14.4069C73.531 14.4069 72.3484 14.7509 71.7074 15.463C71.1644 16.0853 70.8446 16.8616 70.7797 17.7307C70.7797 17.9177 70.6213 18.0419 70.4298 18.0419H66.5488C66.4571 18.0415 66.3692 18.0057 66.3039 17.9419C66.2385 17.8782 66.2008 17.7917 66.1988 17.7008V16.7988C66.1988 15.9312 66.3587 15.1234 66.7117 14.3455C67.0631 13.5707 67.6061 12.917 68.3407 12.359C69.0798 11.7995 70.0376 11.3328 71.1915 11.0232C72.2775 10.709 73.6531 10.5564 75.2535 10.5564ZM61.5274 10.6806H64.0886C64.3119 10.6806 64.4718 10.899 64.4084 11.1144L63.5441 14.3455C63.514 14.5026 63.3526 14.5954 63.2243 14.5954H61.4324C60.4731 14.5954 59.7053 14.7195 59.0975 14.9693C58.5198 15.2162 58.0416 15.4959 57.7203 15.8369C57.4006 16.181 57.2075 16.5206 57.1125 16.8631C57.0264 17.198 56.9833 17.5423 56.9843 17.8878V37.864C56.9823 37.9556 56.944 38.0428 56.8776 38.1067C56.8113 38.1705 56.7222 38.2058 56.6298 38.205H52.7925C52.7006 38.2051 52.6124 38.1694 52.5467 38.1056C52.481 38.0419 52.4431 37.9551 52.4411 37.864V16.9858C52.4411 16.6148 52.5044 16.0553 52.6643 15.3403C52.7925 14.6268 53.1772 13.9431 53.785 13.2281C54.3929 12.5445 55.2889 11.9237 56.5046 11.4271C57.7219 10.9274 59.3856 10.6806 61.5274 10.6806ZM48.6008 31.5259V32.4578C48.6008 32.8617 48.5405 33.4212 48.3791 34.1362C48.2509 34.8183 47.8662 35.5334 47.2584 36.2155C46.6505 36.9006 45.7545 37.5214 44.5388 38.018C43.3231 38.5162 41.6578 38.766 39.516 38.766C37.3741 38.766 35.7089 38.5162 34.4931 38.018C33.2774 37.5214 32.3814 36.932 31.7736 36.217C31.1657 35.5349 30.7811 34.8198 30.6529 34.1078C30.5261 33.3898 30.4311 32.8632 30.4311 32.4593V11.5512C30.4311 11.3642 30.591 11.2072 30.7826 11.2072H34.5897C34.7827 11.2072 34.9426 11.3642 34.9426 11.5512V31.122C34.9426 31.7742 35.0376 32.2409 35.1342 32.6134C35.2322 32.9874 35.4238 33.3583 35.7119 33.6695C35.9985 34.0106 36.448 34.2903 37.0543 34.5072C37.6305 34.7256 38.4315 34.8512 39.4224 34.8512C40.4481 34.8512 41.2777 34.7256 41.8871 34.5072C42.495 34.2903 42.943 34.0106 43.2627 33.6994C43.5795 33.3898 43.8057 33.0487 43.9008 32.6747C43.9973 32.3007 44.127 31.9926 44.127 31.0891V11.5213C44.127 11.3358 44.2854 11.1802 44.477 11.1802H48.2841C48.4741 11.1802 48.634 11.3358 48.634 11.5243V31.5289H48.6038L48.6008 31.5259ZM22.3991 0.71048H26.2077C26.3993 0.71048 26.5592 0.864557 26.5592 1.05005V38.0495C26.558 38.1411 26.5204 38.2286 26.4546 38.293C26.3889 38.3574 26.3001 38.3935 26.2077 38.3935H22.3991C22.3067 38.3935 22.218 38.3574 22.1522 38.293C22.0864 38.2286 22.0489 38.1411 22.0477 38.0495V1.05005C22.0778 0.864557 22.2076 0.71048 22.3991 0.71048Z" fill="#072347"/>
</g>
<defs>
<clipPath id="clip0_2_74">
<rect width="84.4681" height="39.0927" fill="white" transform="translate(-1.52588e-05 0.453674)"/>
</clipPath>
</defs>
</svg>
