<svg width="104" height="62" viewBox="0 0 104 62" fill="none" xmlns="http://www.w3.org/2000/svg">
<g clip-path="url(#clip0_2_3)">
<path d="M81.1731 56.58C79.5131 56.58 78.8808 55.459 78.8808 54.1226C78.8808 52.8897 79.5131 51.621 81.1889 51.621C82.5575 51.621 83.5588 52.5752 83.5588 53.8608V54.1416C83.5588 55.6046 82.5095 56.58 81.1731 56.58ZM17.4883 47.7492C17.4883 47.6647 17.4449 47.6162 17.3511 47.6162H16.7523C16.6573 47.6162 16.6123 47.6647 16.6123 47.7492V53.6286C16.6123 56.1197 17.6724 57.3716 19.7333 57.3716C20.966 57.3716 21.581 56.8924 22.2432 56.1493C22.2558 56.1345 22.2713 56.1197 22.3063 56.1197C22.3497 56.1197 22.3646 56.1493 22.3646 56.1979V57.1225C22.3646 57.2049 22.4128 57.2534 22.5058 57.2534H23.0714C23.1641 57.2534 23.211 57.2049 23.211 57.1225V47.7492C23.211 47.6647 23.1641 47.6162 23.0714 47.6162H22.4727C22.3801 47.6162 22.3343 47.6647 22.3343 47.7492V53.9094C22.3343 55.3429 21.3957 56.5652 19.8114 56.5652C18.136 56.5652 17.4883 55.4927 17.4883 53.6117V47.7492ZM15.2749 47.5655C15.3506 47.5655 15.4006 47.6162 15.4006 47.7154V48.3255C15.4006 48.4226 15.3506 48.4754 15.2749 48.4754H15.0903C13.4591 48.4754 12.5035 49.7062 12.5035 51.2241V57.1225C12.5035 57.2049 12.461 57.2534 12.3687 57.2534H11.7687C11.6753 57.2534 11.6284 57.2049 11.6284 57.1225V47.7492C11.6284 47.6647 11.6753 47.6162 11.7687 47.6162H12.3352C12.4271 47.6162 12.474 47.6647 12.474 47.7492V48.8828C12.474 48.9356 12.4901 48.9652 12.5351 48.9652C12.5666 48.9652 12.5816 48.9504 12.5974 48.9356C13.3062 48.0299 13.9665 47.5655 15.1972 47.5655H15.2749ZM92.7545 45.0638C92.7545 44.9794 92.7092 44.9308 92.6166 44.9308H92.0166C91.922 44.9308 91.8795 44.9794 91.8795 45.0638V46.2482C91.8795 46.3284 91.922 46.3791 92.0166 46.3791H92.6166C92.7092 46.3791 92.7545 46.3284 92.7545 46.2482V45.0638ZM92.7545 47.7492C92.7545 47.6647 92.7092 47.6162 92.6166 47.6162H92.0166C91.922 47.6162 91.8795 47.6647 91.8795 47.7492V57.0909C91.8795 57.169 91.9409 57.2218 92.0336 57.2218H92.6166C92.7092 57.2218 92.7545 57.169 92.7545 57.0909V47.7492ZM95.6934 51.2388C95.6934 49.379 96.4625 48.3065 98.1852 48.3065C99.8605 48.3065 100.679 49.379 100.679 51.2388V53.6286C100.679 55.4927 99.9099 56.5652 98.1852 56.5652C96.5094 56.5652 95.6934 55.4927 95.6934 53.6286V51.2388ZM94.8163 53.6476C94.8163 56.0353 95.9245 57.3716 98.1852 57.3716C100.31 57.3716 101.555 56.0839 101.555 53.6476V51.2241C101.555 48.7878 100.355 47.5001 98.1852 47.5001C96.1077 47.5001 94.8163 48.7878 94.8163 51.2241V53.6476ZM90.37 47.5655C90.4464 47.5655 90.4962 47.6162 90.4962 47.7154V48.3255C90.4962 48.4226 90.4464 48.4754 90.37 48.4754H90.1887C88.5567 48.4754 87.6027 49.7062 87.6027 51.2241V57.1225C87.6027 57.2049 87.5554 57.2534 87.4635 57.2534H86.8632C86.7716 57.2534 86.7251 57.2049 86.7251 57.1225V47.7492C86.7251 47.6647 86.7716 47.6162 86.8632 47.6162H87.4332C87.5266 47.6162 87.5738 47.6647 87.5738 47.7492V48.8828C87.5738 48.9356 87.5857 48.9652 87.6323 48.9652C87.6633 48.9652 87.6791 48.9504 87.6941 48.9356C88.401 48.0299 89.0652 47.5655 90.2959 47.5655H90.37ZM71.9285 51.4077C71.9285 49.5436 72.6511 48.2917 74.4211 48.2917C75.4519 48.2917 75.9908 48.6379 76.4643 49.5795C76.4816 49.6091 76.5432 49.6935 76.6495 49.626L77.1286 49.362C77.2212 49.3114 77.1892 49.1974 77.1715 49.1657C76.6964 48.0447 75.804 47.5001 74.3884 47.5001C72.3133 47.5001 71.0518 48.9504 71.0518 51.393V53.4808C71.0518 56.0839 72.2991 57.3716 74.4211 57.3716C75.8816 57.3716 76.726 56.7256 77.1892 55.8052C77.2035 55.7735 77.233 55.6722 77.1431 55.6236L76.6788 55.3429C76.5893 55.2774 76.5262 55.3239 76.4966 55.3935C76.1273 56.1345 75.4827 56.58 74.4499 56.58C72.6814 56.58 71.9285 55.3239 71.9285 53.464V51.4077ZM69.0658 45.0638C69.0658 44.9794 69.0205 44.9308 68.9266 44.9308H68.3279C68.2367 44.9308 68.1918 44.9794 68.1918 45.0638V46.2482C68.1918 46.3284 68.2367 46.3791 68.3279 46.3791H68.9266C69.0205 46.3791 69.0658 46.3284 69.0658 46.2482V45.0638ZM69.0658 47.7492C69.0658 47.6647 69.0205 47.6162 68.9266 47.6162H68.3279C68.2367 47.6162 68.1918 47.6647 68.1918 47.7492V57.0909C68.1918 57.169 68.2525 57.2218 68.3444 57.2218H68.9266C69.0205 57.2218 69.0658 57.169 69.0658 57.0909V47.7492ZM63.2362 47.4662C63.2362 47.5824 63.2051 47.6162 63.1133 47.6162H62.0378C61.9451 47.6162 61.8971 47.65 61.8971 47.7639V48.2769C61.8971 48.3909 61.9451 48.4226 62.0378 48.4226H63.0974C63.1933 48.4226 63.2216 48.4543 63.2216 48.5704V54.7011C63.2216 56.1493 63.6363 57.3358 65.391 57.3358C66.037 57.3358 66.343 57.2534 66.9146 57.0402C66.9607 57.0233 67.0502 56.9747 67.0206 56.8439L66.8811 56.333C66.8516 56.1979 66.7269 56.2338 66.6986 56.2485C66.2543 56.4153 65.9148 56.5124 65.4679 56.5124C64.4674 56.5124 64.0979 55.9361 64.0979 54.5195V48.5704C64.0979 48.4543 64.1295 48.4226 64.2209 48.4226H66.5145C66.6047 48.4226 66.6524 48.3909 66.6524 48.2769V47.7639C66.6524 47.65 66.6047 47.6162 66.5145 47.6162H64.2209C64.1295 47.6162 64.0979 47.5824 64.0979 47.4662V45.047C64.0979 44.9308 64.0365 44.8991 63.9285 44.9308L63.3904 45.0934C63.2835 45.1272 63.2362 45.1631 63.2362 45.277V47.4662ZM8.30797 50.8926C8.30797 52.3788 7.32127 53.5632 5.79884 53.5632C4.39861 53.5632 3.3985 52.2944 3.3985 50.8926C3.3985 49.4107 4.33553 48.2769 5.86112 48.2769C7.26095 48.2769 8.30797 49.379 8.30797 50.8926ZM8.57012 61.4904C8.65803 61.6192 8.75146 61.539 8.79876 61.5052C9.84578 60.8128 10.2439 59.9071 10.2439 59.0479C10.2439 56.941 8.45975 56.3477 6.38463 56.4153C5.70619 56.4301 4.72146 56.5441 4.12266 56.6454C3.61452 56.7256 3.53765 56.694 3.52109 56.3963C3.46039 55.3576 4.29178 54.2894 5.42906 54.2894H5.76927C7.92007 54.2894 9.15236 52.7082 9.15236 50.8631C9.15236 50.3205 8.93634 49.6091 8.67538 49.134C8.65803 49.1003 8.64384 49.0644 8.64384 49.0348C8.64384 48.9841 8.65803 48.9356 8.73568 48.866C8.92294 48.7034 9.42831 48.4543 9.95339 48.4543H10.0291C10.1064 48.4543 10.1521 48.4057 10.1521 48.3065V47.7154C10.1521 47.6162 10.1064 47.5655 10.0291 47.5655H9.95339C9.18193 47.5655 8.64384 47.994 8.33635 48.2769C8.2587 48.3402 8.21533 48.3761 8.16763 48.3761C8.13649 48.3761 8.09116 48.3761 8.04425 48.3255C7.41312 47.7154 6.50526 47.5001 5.86112 47.5001C3.85972 47.5001 2.55292 49.0348 2.55292 50.8778C2.55292 52.1508 3.24554 53.2824 4.1538 53.8608C4.21253 53.9094 4.19835 53.9917 4.13803 54.0255C3.0784 54.6356 2.53715 55.8369 2.81585 57.1056C2.89115 57.5046 3.12255 57.549 3.81439 57.4498C4.38441 57.3716 5.10582 57.2365 6.44337 57.2049C8.57012 57.1542 9.38219 57.8319 9.38219 59.1154C9.38219 59.6918 9.16735 60.2871 8.33635 60.8613C8.30797 60.8951 8.19799 60.9458 8.30797 61.1083L8.57012 61.4904ZM55.0701 51.2388C55.0701 49.379 55.8353 48.3065 57.5596 48.3065C59.2381 48.3065 60.0522 49.379 60.0522 51.2388V53.6286C60.0522 55.4927 59.2827 56.5652 57.5596 56.5652C55.8862 56.5652 55.0701 55.4927 55.0701 53.6286V51.2388ZM54.1912 53.6476C54.1912 56.0353 55.2992 57.3716 57.5596 57.3716C59.6836 57.3716 60.9305 56.0839 60.9305 53.6476V51.2241C60.9305 48.7878 59.7297 47.5001 57.5596 47.5001C55.4845 47.5001 54.1912 48.7878 54.1912 51.2241V53.6476ZM26.2712 50.9623C26.2712 49.5267 27.2415 48.3065 28.8727 48.3065C30.5627 48.3065 31.2868 49.379 31.2868 51.2388V53.6286C31.2868 55.4927 30.5011 56.5652 28.8254 56.5652C27.2883 56.5652 26.2712 55.2457 26.2712 53.7954V50.9623ZM45.5634 57.1225C45.5634 57.2049 45.608 57.2534 45.7018 57.2534H46.2706C46.3614 57.2534 46.4086 57.2049 46.4086 57.1225V56.2675C46.4086 56.219 46.4224 56.1831 46.4713 56.1831C46.5004 56.1831 46.5147 56.1979 46.5332 56.219C47.0705 56.8586 47.9007 57.3716 48.9777 57.3716C51.0249 57.3716 52.2827 56.0839 52.2827 53.6476V51.2241C52.2827 48.7878 51.1467 47.5001 49.0853 47.5001C47.853 47.5001 47.2085 47.9096 46.547 48.6527C46.5332 48.6675 46.5147 48.6865 46.4843 48.6865C46.439 48.6865 46.4224 48.6527 46.4224 48.6062V43.5797C46.4224 43.4953 46.379 43.4467 46.2849 43.4467H45.7018C45.608 43.4467 45.5634 43.4953 45.5634 43.5797V57.1225ZM49.0068 48.3065C50.6704 48.3065 51.4076 49.379 51.4076 51.2388V53.6286C51.4076 55.4927 50.6243 56.5652 48.9454 56.5652C47.3623 56.5652 46.3925 55.1951 46.3925 53.7954V50.9623C46.3925 49.5267 47.348 48.3065 49.0068 48.3065ZM26.2413 47.7492C26.2413 47.6647 26.1951 47.6162 26.1037 47.6162H25.5786C25.4884 47.6162 25.4426 47.6647 25.4426 47.7492V61.1083C25.4426 61.1928 25.4884 61.2392 25.5786 61.2392H26.1506C26.2413 61.2392 26.2882 61.1928 26.2882 61.1083V56.2675C26.2882 56.219 26.3043 56.1831 26.3493 56.1831C26.38 56.1831 26.3974 56.1979 26.4093 56.219C26.9481 56.8586 27.78 57.3716 28.8549 57.3716C30.9041 57.3716 32.1651 56.0839 32.1651 53.6476V51.2241C32.1651 48.7878 31.0266 47.5001 28.9511 47.5001C27.6727 47.5001 27.0242 47.9814 26.3655 48.7223C26.3493 48.7351 26.3343 48.754 26.3043 48.754C26.2586 48.754 26.2413 48.7223 26.2413 48.6675V47.7492ZM34.9486 51.2388C34.9486 49.379 35.7177 48.3065 37.4392 48.3065C39.1166 48.3065 39.9314 49.379 39.9314 51.2388V53.6286C39.9314 55.4927 39.1638 56.5652 37.4392 56.5652C35.763 56.5652 34.9486 55.4927 34.9486 53.6286V51.2388ZM34.0714 53.6476C34.0714 56.0353 35.1796 57.3716 37.4392 57.3716C39.5624 57.3716 40.8085 56.0839 40.8085 53.6476V51.2241C40.8085 48.7878 39.6093 47.5001 37.4392 47.5001C35.3629 47.5001 34.0714 48.7878 34.0714 51.2241V53.6476ZM84.434 50.8631C84.434 48.9187 83.8198 47.65 81.5437 47.5001C82.9254 46.759 84.4656 45.636 85.2177 44.8295C85.3104 44.7323 85.2973 44.6521 85.2473 44.6014L84.928 44.2552C84.8491 44.173 84.7565 44.2215 84.7245 44.2552C83.3578 45.655 81.2954 47.1074 78.8059 48.0574C78.7267 48.0933 78.7109 48.1777 78.7429 48.258L78.9269 48.7034C78.9577 48.771 79.0184 48.8026 79.0806 48.771C80.3725 48.1925 81.2658 48.258 81.3119 48.258C83.1883 48.258 83.5699 49.5267 83.5699 50.6794V51.7476C83.5699 51.8489 83.5419 51.8827 83.495 51.8827C83.4655 51.8827 83.4335 51.8658 83.4024 51.8342C82.8028 51.2241 82.1878 50.8631 81.1731 50.8631C79.0972 50.8631 78.0664 52.3957 78.0664 54.1564C78.0664 56.0205 79.111 57.3358 81.0509 57.3358C82.2173 57.3358 82.884 56.8249 83.4812 56.1345C83.4951 56.1197 83.5108 56.1007 83.5419 56.1007C83.5892 56.1007 83.6034 56.1345 83.6034 56.1831V57.1225C83.6034 57.2049 83.6507 57.2534 83.7402 57.2534H84.2972C84.3887 57.2534 84.434 57.2049 84.434 57.1225V50.8631Z" fill="#6E6E6E"/>
<mask id="mask0_2_3" style="mask-type:luminance" maskUnits="userSpaceOnUse" x="48" y="15" width="11" height="6">
<path d="M50.4399 20.7834C51.9023 18.8653 53.8382 18.2712 55.6674 18.6533C56.4275 17.982 57.3282 17.2143 58.4308 16.2825C58.5069 16.2191 58.5798 16.1546 58.6559 16.0904C58.6496 16.0883 58.6496 16.0883 58.6481 16.0883C55.0194 14.2833 51.2125 15.2587 49.0329 17.7548C48.9363 17.8722 48.837 17.9884 48.7431 18.1107C48.6355 18.248 48.52 18.3937 48.4006 18.5288C48.5307 18.6914 49.3356 19.673 50.4067 20.8286C50.4165 20.8138 50.43 20.7969 50.4399 20.7834Z" fill="white"/>
</mask>
<g mask="url(#mask0_2_3)">
<path d="M50.4399 20.7834C51.9023 18.8653 53.8382 18.2712 55.6674 18.6533C56.4275 17.982 57.3282 17.2143 58.4308 16.2825C58.5069 16.2191 58.5798 16.1546 58.6559 16.0904C58.6496 16.0883 58.6496 16.0883 58.6481 16.0883C55.0194 14.2833 51.2125 15.2587 49.0329 17.7548C48.9363 17.8722 48.837 17.9884 48.7431 18.1107C48.6355 18.248 48.52 18.3937 48.4006 18.5288C48.5307 18.6914 49.3356 19.673 50.4067 20.8286C50.4165 20.8138 50.43 20.7969 50.4399 20.7834Z" fill="url(#paint0_linear_2_3)"/>
</g>
<mask id="mask1_2_3" style="mask-type:luminance" maskUnits="userSpaceOnUse" x="39" y="3" width="10" height="33">
<path d="M48.4116 18.5203C48.3951 18.5393 48.4219 18.5076 48.4093 18.5266C45.6041 14.776 42.5379 8.66856 47.1072 3.34765C43.6807 6.42862 40.8172 11.562 39.9077 16.177C37.8457 26.6236 42.897 32.6398 47.3737 35.5848C42.8548 31.5527 44.1692 24.0332 48.4116 18.5203Z" fill="white"/>
</mask>
<g mask="url(#mask1_2_3)">
<path d="M48.4116 18.5203C48.3951 18.5393 48.4219 18.5076 48.4093 18.5266C45.6041 14.776 42.5379 8.66856 47.1072 3.34765C43.6807 6.42862 40.8172 11.562 39.9077 16.177C37.8457 26.6236 42.897 32.6398 47.3737 35.5848C42.8548 31.5527 44.1692 24.0332 48.4116 18.5203Z" fill="url(#paint1_linear_2_3)"/>
</g>
<path d="M48.4093 18.5266L48.3678 18.5782C48.382 18.5583 48.3951 18.5393 48.4116 18.5203C52.945 12.7789 60.9609 6.17959 58.497 2.40404C56.9195 -0.00689507 53.4102 -0.125147 51.3398 0.577866C51.2633 0.611696 51.1829 0.64629 51.1056 0.684338C49.6301 1.38227 48.2847 2.25206 47.1072 3.34765C42.5379 8.66856 45.6041 14.776 48.4093 18.5266Z" fill="#CCE310"/>
<mask id="mask2_2_3" style="mask-type:luminance" maskUnits="userSpaceOnUse" x="49" y="16" width="16" height="22">
<path d="M58.6559 16.0904C58.5798 16.1546 58.5069 16.2192 58.4308 16.2825C57.3282 17.2143 56.4275 17.982 55.6674 18.6533C65.6196 20.7053 64.3956 36.8283 53.4314 37.3794C51.9973 37.4554 50.5506 37.1324 49.6541 36.8052C49.7815 36.858 49.9688 36.9297 50.0807 36.972C56.6943 39.3364 62.7261 35.7623 64.236 29.7139C65.6507 24.043 63.6284 18.5689 58.6559 16.0904Z" fill="white"/>
</mask>
<g mask="url(#mask2_2_3)">
<path d="M58.6559 16.0904C58.5798 16.1546 58.5069 16.2192 58.4308 16.2825C57.3282 17.2143 56.4275 17.982 55.6674 18.6533C65.6196 20.7053 64.3956 36.8283 53.4314 37.3794C51.9973 37.4554 50.5506 37.1324 49.6541 36.8052C49.7815 36.858 49.9688 36.9297 50.0807 36.972C56.6943 39.3364 62.7261 35.7623 64.236 29.7139C65.6507 24.043 63.6284 18.5689 58.6559 16.0904Z" fill="url(#paint2_linear_2_3)"/>
</g>
<mask id="mask3_2_3" style="mask-type:luminance" maskUnits="userSpaceOnUse" x="49" y="-1" width="16" height="19">
<path d="M51.3398 0.57786C53.4102 -0.125153 56.9195 -0.00690079 58.497 2.40403C60.8532 6.00859 53.6333 12.1975 49.0329 17.7548C51.2125 15.2587 55.0194 14.2833 58.6481 16.0882C58.6496 16.0882 58.6496 16.0882 58.6559 16.0904C71.8142 4.8369 60.2375 -3.4142 51.3398 0.57786Z" fill="white"/>
</mask>
<g mask="url(#mask3_2_3)">
<path d="M51.3398 0.57786C53.4102 -0.125153 56.9195 -0.00690079 58.497 2.40403C60.8532 6.00859 53.6333 12.1975 49.0329 17.7548C51.2125 15.2587 55.0194 14.2833 58.6481 16.0882C58.6496 16.0882 58.6496 16.0882 58.6559 16.0904C71.8142 4.8369 60.2375 -3.4142 51.3398 0.57786Z" fill="url(#paint3_linear_2_3)"/>
</g>
<mask id="mask4_2_3" style="mask-type:luminance" maskUnits="userSpaceOnUse" x="44" y="18" width="6" height="19">
<path d="M48.4325 27.2709C48.4274 27.2624 48.4219 27.2539 48.4203 27.2497C46.6511 23.8897 46.9625 20.7728 48.429 18.5435C48.4385 18.5562 48.4526 18.5731 48.4691 18.5929C48.4381 18.5519 48.4164 18.5266 48.4116 18.5245C48.4116 18.5245 48.4116 18.5245 48.4093 18.5266C48.4093 18.5266 48.4116 18.5246 48.4116 18.5202C48.4093 18.5246 48.4093 18.5245 48.4061 18.5266C44.1719 24.0332 42.858 31.54 47.363 35.5743C47.4249 35.6165 47.4884 35.6609 47.5503 35.7052C47.8869 35.9205 48.5938 36.3533 49.3183 36.6637C49.3211 36.6657 49.3211 36.6657 49.3238 36.6657C45.6285 35.0487 46.7442 30.4421 48.4325 27.2709ZM48.4061 18.5245V18.5266C48.4093 18.5245 48.4093 18.5202 48.4116 18.5202C48.4093 18.5202 48.4093 18.5245 48.4061 18.5245Z" fill="white"/>
</mask>
<g mask="url(#mask4_2_3)">
<path d="M48.4325 27.2709C48.4274 27.2624 48.4219 27.2539 48.4203 27.2497C46.6511 23.8897 46.9625 20.7728 48.429 18.5435C48.4385 18.5562 48.4526 18.5731 48.4691 18.5929C48.4381 18.5519 48.4164 18.5266 48.4116 18.5245C48.4116 18.5245 48.4116 18.5245 48.4093 18.5266C48.4093 18.5266 48.4116 18.5246 48.4116 18.5202C48.4093 18.5246 48.4093 18.5245 48.4061 18.5266C44.1719 24.0332 42.858 31.54 47.363 35.5743C47.4249 35.6165 47.4884 35.6609 47.5503 35.7052C47.8869 35.9205 48.5938 36.3533 49.3183 36.6637C49.3211 36.6657 49.3211 36.6657 49.3238 36.6657C45.6285 35.0487 46.7442 30.4421 48.4325 27.2709ZM48.4061 18.5245V18.5266C48.4093 18.5245 48.4093 18.5202 48.4116 18.5202C48.4093 18.5202 48.4093 18.5245 48.4061 18.5245Z" fill="url(#paint4_linear_2_3)"/>
</g>
<mask id="mask5_2_3" style="mask-type:luminance" maskUnits="userSpaceOnUse" x="48" y="24" width="10" height="6">
<path d="M56.8426 26.5363C57.0121 25.981 57.1181 25.1682 57.0968 24.6899C57.137 25.2683 56.6337 27.8071 54.564 28.4826C52.3533 29.2055 50.0578 27.4701 49.5994 25.2949C49.1621 26.0233 48.7206 26.7516 48.4325 27.2709C50.5865 30.383 55.4392 30.8813 56.8426 26.5363Z" fill="white"/>
</mask>
<g mask="url(#mask5_2_3)">
<path d="M56.8426 26.5363C57.0121 25.981 57.1181 25.1682 57.0968 24.6899C57.137 25.2683 56.6337 27.8071 54.564 28.4826C52.3533 29.2055 50.0578 27.4701 49.5994 25.2949C49.1621 26.0233 48.7206 26.7516 48.4325 27.2709C50.5865 30.383 55.4392 30.8813 56.8426 26.5363Z" fill="url(#paint5_linear_2_3)"/>
</g>
<mask id="mask6_2_3" style="mask-type:luminance" maskUnits="userSpaceOnUse" x="47" y="18" width="4" height="10">
<path d="M49.5982 25.297C49.2426 23.777 49.4909 22.0585 50.4068 20.8286C49.3731 19.716 48.5985 18.7631 48.4274 18.5499C46.9621 20.777 46.6511 23.8939 48.4203 27.2498C48.4219 27.254 48.4274 27.2624 48.4325 27.2709C48.7206 26.7516 49.1621 26.0253 49.5982 25.297Z" fill="white"/>
</mask>
<g mask="url(#mask6_2_3)">
<path d="M49.5982 25.297C49.2426 23.777 49.4909 22.0585 50.4068 20.8286C49.3731 19.716 48.5985 18.7631 48.4274 18.5499C46.9621 20.777 46.6511 23.8939 48.4203 27.2498C48.4219 27.254 48.4274 27.2624 48.4325 27.2709C48.7206 26.7516 49.1621 26.0253 49.5982 25.297Z" fill="url(#paint6_linear_2_3)"/>
</g>
<mask id="mask7_2_3" style="mask-type:luminance" maskUnits="userSpaceOnUse" x="46" y="18" width="17" height="20">
<path d="M56.6304 18.9032C56.5584 18.8843 56.4858 18.8611 56.4109 18.8391C56.3557 18.8243 56.2981 18.8053 56.2402 18.7905C56.1771 18.7694 56.1113 18.7546 56.0497 18.7399C55.9236 18.7103 55.7974 18.6786 55.6674 18.6533L55.6146 18.6744C55.6146 18.6744 53.8473 20.1987 52.2737 21.9285C52.9895 21.326 53.9471 21.0756 54.892 21.348C55.7171 21.5835 56.3612 22.1641 56.7381 22.903C56.7637 22.9494 56.7842 22.9968 56.8039 23.0411C56.8165 23.0697 56.8323 23.0951 56.8425 23.1226C56.8697 23.188 56.8914 23.2535 56.9194 23.3197C57.0601 23.7369 57.1283 24.1865 57.1008 24.6468C57.1008 24.6983 57.1008 24.7524 57.0968 24.8051C57.1008 25.2928 56.9971 26.0233 56.8425 26.5363C55.4392 30.8813 50.5865 30.3831 48.4325 27.271C46.7441 30.4422 45.6285 35.0487 49.3258 36.6701C49.4018 36.706 49.5288 36.7523 49.6865 36.8136C50.5853 37.1366 52.0143 37.4533 53.4314 37.3794C64.029 36.8473 65.527 21.7715 56.6304 18.9032Z" fill="white"/>
</mask>
<g mask="url(#mask7_2_3)">
<path d="M56.6304 18.9032C56.5584 18.8843 56.4858 18.8611 56.4109 18.8391C56.3557 18.8243 56.2981 18.8053 56.2402 18.7905C56.1771 18.7694 56.1113 18.7546 56.0497 18.7399C55.9236 18.7103 55.7974 18.6786 55.6674 18.6533L55.6146 18.6744C55.6146 18.6744 53.8473 20.1987 52.2737 21.9285C52.9895 21.326 53.9471 21.0756 54.892 21.348C55.7171 21.5835 56.3612 22.1641 56.7381 22.903C56.7637 22.9494 56.7842 22.9968 56.8039 23.0411C56.8165 23.0697 56.8323 23.0951 56.8425 23.1226C56.8697 23.188 56.8914 23.2535 56.9194 23.3197C57.0601 23.7369 57.1283 24.1865 57.1008 24.6468C57.1008 24.6983 57.1008 24.7524 57.0968 24.8051C57.1008 25.2928 56.9971 26.0233 56.8425 26.5363C55.4392 30.8813 50.5865 30.3831 48.4325 27.271C46.7441 30.4422 45.6285 35.0487 49.3258 36.6701C49.4018 36.706 49.5288 36.7523 49.6865 36.8136C50.5853 37.1366 52.0143 37.4533 53.4314 37.3794C64.029 36.8473 65.527 21.7715 56.6304 18.9032Z" fill="url(#paint7_linear_2_3)"/>
</g>
<mask id="mask8_2_3" style="mask-type:luminance" maskUnits="userSpaceOnUse" x="50" y="18" width="6" height="5">
<path d="M52.282 21.9201C53.1816 20.9376 54.143 19.9989 55.6674 18.6533C53.8382 18.2712 51.9024 18.8653 50.4399 20.7834C50.43 20.797 50.4165 20.8138 50.4068 20.8286C50.8541 21.3112 51.3525 21.8263 51.8759 22.3288C52.0004 22.1797 52.1369 22.0417 52.282 21.9201Z" fill="white"/>
</mask>
<g mask="url(#mask8_2_3)">
<path d="M52.282 21.9201C53.1816 20.9376 54.143 19.9989 55.6674 18.6533C53.8382 18.2712 51.9024 18.8653 50.4399 20.7834C50.43 20.797 50.4165 20.8138 50.4068 20.8286C50.8541 21.3112 51.3525 21.8263 51.8759 22.3288C52.0004 22.1797 52.1369 22.0417 52.282 21.9201Z" fill="url(#paint8_linear_2_3)"/>
</g>
<mask id="mask9_2_3" style="mask-type:luminance" maskUnits="userSpaceOnUse" x="49" y="20" width="3" height="6">
<path d="M51.8798 22.3288C51.3481 21.8229 50.8466 21.3028 50.3973 20.8159C50.3981 20.8202 50.4039 20.8264 50.4067 20.8286C49.4779 22.0459 49.2426 23.7769 49.5982 25.297C50.165 24.4525 51.1364 23.1689 51.7289 22.5272C51.7754 22.4541 51.8262 22.3921 51.8798 22.3288Z" fill="white"/>
</mask>
<g mask="url(#mask9_2_3)">
<path d="M51.8798 22.3288C51.3481 21.8229 50.8466 21.3028 50.3973 20.8159C50.3981 20.8202 50.4039 20.8264 50.4067 20.8286C49.4779 22.0459 49.2426 23.7769 49.5982 25.297C50.165 24.4525 51.1364 23.1689 51.7289 22.5272C51.7754 22.4541 51.8262 22.3921 51.8798 22.3288Z" fill="url(#paint9_linear_2_3)"/>
</g>
<mask id="mask10_2_3" style="mask-type:luminance" maskUnits="userSpaceOnUse" x="49" y="22" width="9" height="7">
<path d="M57.1035 24.4133C57.1063 24.6941 57.074 24.979 57.0057 25.262C57.003 25.262 57.003 25.262 57.003 25.2662C57.003 25.2662 57.003 25.2662 57.003 25.2683C56.5785 26.9691 54.944 27.9811 53.3546 27.5264C53.3522 27.5264 53.3522 27.5264 53.3522 27.5264C53.3522 27.5264 53.3522 27.5264 53.3491 27.5264C51.7565 27.0691 50.8107 25.3139 51.2357 23.6111C51.3347 23.2057 51.5062 22.846 51.7262 22.5293C51.1348 23.1711 50.1651 24.4525 49.5982 25.297V25.2949C49.5982 25.2949 49.5982 25.297 49.5954 25.297C49.5954 25.2991 49.5982 25.2991 49.5982 25.2991C49.5982 25.297 49.5994 25.297 49.5994 25.2949C50.0578 27.4702 52.3534 29.2056 54.5641 28.4827C56.526 27.8409 57.0779 25.5323 57.0968 24.7988C57.1008 24.9664 57.0885 25.164 57.063 25.3794C57.1244 24.9369 57.1181 24.5919 57.1035 24.4133Z" fill="white"/>
</mask>
<g mask="url(#mask10_2_3)">
<path d="M57.1035 24.4133C57.1063 24.6941 57.074 24.979 57.0057 25.262C57.003 25.262 57.003 25.262 57.003 25.2662C57.003 25.2662 57.003 25.2662 57.003 25.2683C56.5785 26.9691 54.944 27.9811 53.3546 27.5264C53.3522 27.5264 53.3522 27.5264 53.3522 27.5264C53.3522 27.5264 53.3522 27.5264 53.3491 27.5264C51.7565 27.0691 50.8107 25.3139 51.2357 23.6111C51.3347 23.2057 51.5062 22.846 51.7262 22.5293C51.1348 23.1711 50.1651 24.4525 49.5982 25.297V25.2949C49.5982 25.2949 49.5982 25.297 49.5954 25.297C49.5954 25.2991 49.5982 25.2991 49.5982 25.2991C49.5982 25.297 49.5994 25.297 49.5994 25.2949C50.0578 27.4702 52.3534 29.2056 54.5641 28.4827C56.526 27.8409 57.0779 25.5323 57.0968 24.7988C57.1008 24.9664 57.0885 25.164 57.063 25.3794C57.1244 24.9369 57.1181 24.5919 57.1035 24.4133Z" fill="url(#paint10_linear_2_3)"/>
</g>
</g>
<defs>
<linearGradient id="paint0_linear_2_3" x1="49.0744" y1="16.425" x2="57.6662" y2="19.178" gradientUnits="userSpaceOnUse">
<stop stop-color="#6380C9"/>
<stop offset="1" stop-color="#355298"/>
</linearGradient>
<linearGradient id="paint1_linear_2_3" x1="39.6134" y1="16.6635" x2="52.1491" y2="20.6803" gradientUnits="userSpaceOnUse">
<stop stop-color="#CCE310"/>
<stop offset="1" stop-color="#40B93C"/>
</linearGradient>
<linearGradient id="paint2_linear_2_3" x1="50.4537" y1="16.3611" x2="59.8431" y2="33.0824" gradientUnits="userSpaceOnUse">
<stop stop-color="#EE2C27"/>
<stop offset="1" stop-color="#F68712"/>
</linearGradient>
<linearGradient id="paint3_linear_2_3" x1="56.66" y1="6.72857" x2="62.3373" y2="-1.1171" gradientUnits="userSpaceOnUse">
<stop stop-color="#69B0E4"/>
<stop offset="1" stop-color="#3770AD"/>
</linearGradient>
<linearGradient id="paint4_linear_2_3" x1="44.5485" y1="27.5932" x2="49.3238" y2="27.5932" gradientUnits="userSpaceOnUse">
<stop stop-color="#51ADE5"/>
<stop offset="1" stop-color="#3872C1"/>
</linearGradient>
<linearGradient id="paint5_linear_2_3" x1="48.4324" y1="27.1953" x2="57.0996" y2="27.1953" gradientUnits="userSpaceOnUse">
<stop stop-color="#F14E1C"/>
<stop offset="1" stop-color="#EE242E"/>
</linearGradient>
<linearGradient id="paint6_linear_2_3" x1="47.2079" y1="22.9103" x2="50.4069" y2="22.9103" gradientUnits="userSpaceOnUse">
<stop stop-color="#6380C9"/>
<stop offset="1" stop-color="#355298"/>
</linearGradient>
<linearGradient id="paint7_linear_2_3" x1="57.0336" y1="23.0147" x2="51.7071" y2="37.1805" gradientUnits="userSpaceOnUse">
<stop stop-color="#F68712"/>
<stop offset="1" stop-color="#F14624"/>
</linearGradient>
<linearGradient id="paint8_linear_2_3" x1="52.9313" y1="25.3217" x2="53.1255" y2="16.4396" gradientUnits="userSpaceOnUse">
<stop stop-color="#D9521F"/>
<stop offset="1" stop-color="#1C61B6"/>
</linearGradient>
<linearGradient id="paint9_linear_2_3" x1="50.6143" y1="25.462" x2="50.8603" y2="14.2082" gradientUnits="userSpaceOnUse">
<stop stop-color="#D9521F"/>
<stop offset="1" stop-color="#1C61B6"/>
</linearGradient>
<linearGradient id="paint10_linear_2_3" x1="49.4135" y1="26.933" x2="55.5915" y2="24.8777" gradientUnits="userSpaceOnUse">
<stop stop-color="#F68712"/>
<stop offset="0.692308" stop-color="#F14624"/>
<stop offset="1" stop-color="#F14624"/>
</linearGradient>
<clipPath id="clip0_2_3">
<rect width="104" height="62" fill="white"/>
</clipPath>
</defs>
</svg>
